REM MD5 ed67e0351a3a54cbd91e9b6c73a617d0
FILE "Dengeki PlayStation D33 (Japan).bin" BINARY
  TRACK 01 MODE2/2352
    INDEX 01 00:00:00
  TRACK 02 AUDIO
    INDEX 00 60:29:06
    INDEX 01 60:31:06
  TRACK 03 AUDIO
    INDEX 00 61:58:35
    INDEX 01 62:00:35
  TRACK 04 AUDIO
    INDEX 00 65:13:55
    INDEX 01 65:15:55
REM LEADOUT 68:45:55
